<svg xmlns="http://www.w3.org/2000/svg" xmlns:xlink="http://www.w3.org/1999/xlink" viewBox="0 0 139.21 143.02"><defs><style>.cls-1{fill:none;}.cls-2{clip-path:url(#clip-path);}.cls-3{fill:#98d3ea;}.cls-4{fill:#f2bf91;}.cls-5{fill:#67a2bf;}.cls-6{fill:#eceded;}.cls-13,.cls-7{fill:#fff;}.cls-8{fill:#76ba36;}.cls-9{fill:#ff473b;}.cls-10{fill:#ffc999;}.cls-11{fill:#fff88c;}.cls-12{fill:#e0b186;}.cls-13{opacity:0.2;}</style><clipPath id="clip-path"><circle class="cls-1" cx="69.61" cy="69.61" r="69.61" transform="translate(-28.83 69.61) rotate(-45)"/></clipPath></defs><title>Checklist</title><g id="Ebene_2" data-name="Ebene 2"><g id="OBJECTS"><g class="cls-2"><circle class="cls-3" cx="69.61" cy="69.61" r="69.61"/><path class="cls-4" d="M40.54,59,29.09,70.2,20.67,92.73l13.61-.79s3.11-.22,4.46-2.36S40.54,59,40.54,59Z"/><rect class="cls-5" x="36.05" y="29.35" width="69.14" height="87.77" rx="4" ry="4"/><rect class="cls-6" x="41.32" y="32.57" width="60.56" height="80.06"/><polyline class="cls-4" points="22.22 88.58 13.26 110.27 28.64 110.27 35.45 91.73 22.36 88.19"/><rect class="cls-7" x="40.54" y="33.84" width="60.16" height="78.79"/><rect class="cls-6" x="57.48" y="29.35" width="26.26" height="6.44"/><rect class="cls-6" x="55.2" y="47.16" width="40.63" height="9.13"/><rect class="cls-6" x="44.05" y="47.16" width="9.13" height="9.13"/><rect class="cls-6" x="55.2" y="58.38" width="40.63" height="9.13"/><rect class="cls-6" x="44.05" y="58.38" width="9.13" height="9.13"/><rect class="cls-6" x="55.2" y="69.61" width="40.63" height="9.13"/><rect class="cls-6" x="44.05" y="69.61" width="9.13" height="9.13"/><rect class="cls-6" x="55.2" y="80.83" width="40.63" height="9.13"/><rect class="cls-6" x="44.05" y="80.83" width="9.13" height="9.13"/><rect class="cls-6" x="55.2" y="92.05" width="40.63" height="9.13"/><rect class="cls-6" x="44.05" y="92.05" width="9.13" height="9.13"/><polygon class="cls-8" points="51.98 49.9 51.23 49.14 47.96 52.42 46 50.46 45.25 51.21 47.21 53.17 47.2 53.17 47.95 53.93 47.96 53.92 47.97 53.93 48.72 53.17 48.71 53.17 51.98 49.9"/><polygon class="cls-8" points="51.98 61.64 51.23 60.89 47.96 64.16 46 62.2 45.25 62.96 47.21 64.92 47.2 64.92 47.95 65.67 47.96 65.67 47.97 65.67 48.72 64.92 48.71 64.92 51.98 61.64"/><polygon class="cls-8" points="51.98 72.53 51.23 71.78 47.96 75.05 46 73.09 45.25 73.84 47.21 75.8 47.2 75.81 47.95 76.56 47.96 76.56 47.97 76.56 48.72 75.81 48.71 75.8 51.98 72.53"/><polygon class="cls-9" points="50.44 86.28 49.56 85.39 51.2 83.75 50.45 83 48.81 84.64 47.17 83 46.41 83.75 48.05 85.39 47.17 86.28 46.42 87.03 46.41 87.03 47.17 87.78 47.17 87.78 47.18 87.78 47.93 87.03 47.93 87.03 48.81 86.14 49.69 87.03 49.68 87.03 50.44 87.78 50.44 87.78 50.45 87.78 51.2 87.03 51.19 87.03 50.44 86.28"/><polygon class="cls-9" points="50.44 97.5 49.56 96.62 51.2 94.98 50.45 94.22 48.81 95.86 47.17 94.22 46.41 94.98 48.05 96.62 47.17 97.5 46.42 98.25 46.41 98.26 47.17 99.01 47.17 99 47.18 99.01 47.93 98.26 47.93 98.25 48.81 97.37 49.69 98.25 49.68 98.26 50.44 99.01 50.44 99 50.45 99.01 51.2 98.26 51.19 98.25 50.44 97.5"/><path class="cls-10" d="M36.05,83s1-1.72,4.49-8.83,0-8.5,0-8.5L31.05,76.94,20.9,91.85S36.05,95,36.05,83Z"/><polygon class="cls-10" points="27.81 91.86 20.9 91.86 13.26 110.27 20.18 110.27 27.81 91.86"/><polygon class="cls-8" points="23.37 132.45 1.26 132.45 16.81 96.27 35.45 96.27 23.37 132.45"/><polygon class="cls-11" points="35.8 93.71 19.27 93.71 18.36 96.27 34.89 96.27 35.8 93.71"/><path class="cls-10" d="M73.82,74.68l18.64,7,10.33,21.57-13.62-.79s-3.11-.22-4.46-2.36c-1-1.62-5.67-13.68-8.38-20.24,0,0-2.89-1.48-3.33-2.7S73.82,74.68,73.82,74.68Z"/><path class="cls-6" d="M70.49,42.78a4.78,4.78,0,0,1-4.74-4.16H57.49V34.55l9.78-.08a4.77,4.77,0,0,1,6.37-.06l10.12-.08v4.29H75.22A4.78,4.78,0,0,1,70.49,42.78Zm-11.76-5.4h8.21V38A3.55,3.55,0,0,0,74,38v-.62h8.49v-1.8l-9.37.08L73,35.48a3.54,3.54,0,0,0-5,0l-.18.18-9.05.08Z"/><polygon class="cls-6" points="100.69 41.16 93.37 41.16 93.37 33.84 100.69 41.16"/><polygon class="cls-12" points="76.33 79.91 86.13 83.38 89.93 92.05 80.22 92.66 76.33 79.91"/><polygon class="cls-9" points="114.5 85.87 113.59 91.02 70.61 83.41 67.67 81.18 65.98 79.91 68.03 79.29 71.53 78.26 71.54 78.26 114.5 85.87"/><polygon class="cls-13" points="114.29 87.46 113.87 89.44 70.61 81.84 70.66 79.75 114.29 87.46"/><path class="cls-10" d="M88.44,103.3l-4.3-2.12L73.82,81.32s3.78-1.41,6.67,3.2l4.17,6.29,2.61.61,1.65-4.77,3.74,7Z"/><polygon class="cls-10" points="87.13 101.97 88.26 105.01 103.48 104.65 101.53 100.67 87.13 101.97"/><polygon class="cls-8" points="100.08 143.02 122.19 143.02 106.65 106.84 88 106.84 100.08 143.02"/><polygon class="cls-11" points="87.65 104.28 104.19 104.28 105.1 106.84 88.56 106.84 87.65 104.28"/><polygon class="cls-10" points="71.54 78.26 70.61 83.41 67.67 81.18 68.03 79.29 71.53 78.26 71.54 78.26"/></g></g></g></svg>