<?xml version="1.0" encoding="UTF-8"?>
<svg width="91px" height="94px" viewBox="0 0 91 94" version="1.1" xmlns="http://www.w3.org/2000/svg" xmlns:xlink="http://www.w3.org/1999/xlink">
    <!-- Generator: Sketch 52.4 (67378) - http://www.bohemiancoding.com/sketch -->
    <title>Group 8 Copy 4</title>
    <desc>Created with Sketch.</desc>
    <g id="Layout" stroke="none" stroke-width="1" fill="none" fill-rule="evenodd">
        <g id="Group-8-Copy-4">
            <g id="Group-8-Copy-3">
                <g id="Group-8-Copy-2">
                    <path d="M81.9991192,24 L9.00088075,24 C16.9536083,13.6621427 29.4487908,7 43.5,7 L47.5,7 C61.5512092,7 74.0463917,13.6621427 81.9991192,24 Z M84.112318,27 C88.4713238,33.777165 91,41.8432805 91,50.5 C91,74.5243866 71.5243866,94 47.5,94 L43.5,94 C19.4756134,94 2.94213882e-15,74.5243866 0,50.5 C-1.06014238e-15,41.8432805 2.52867618,33.777165 6.88768199,27 L84.112318,27 Z" id="Combined-Shape" fill="#FFFFFF"></path>
                    <g id="Group-10" transform="translate(26.000000, 0.000000)">
                        <g id="Group-9" transform="translate(27.000000, 0.000000)">
                            <rect id="Rectangle-Copy-2" fill="#7F7F7F" x="1" y="1" width="11" height="20" rx="2.5"></rect>
                            <rect id="Rectangle" fill="#FFFFFF" x="0" y="0" width="11" height="20" rx="2.5"></rect>
                        </g>
                        <g id="Group-9-Copy">
                            <rect id="Rectangle-Copy-2" fill="#7F7F7F" x="1" y="1" width="11" height="20" rx="2.5"></rect>
                            <rect id="Rectangle" fill="#FFFFFF" x="0" y="0" width="11" height="20" rx="2.5"></rect>
                        </g>
                    </g>
                    <path d="M43.15625,45.3789062 L39.6601562,45.6523438 C39.3476547,44.2721285 38.9049508,43.2695344 38.3320312,42.6445312 C37.3815057,41.6419221 36.2096424,41.140625 34.8164062,41.140625 C33.696609,41.140625 32.7135459,41.4531219 31.8671875,42.078125 C30.7604111,42.8854207 29.888024,44.0637943 29.25,45.6132812 C28.611976,47.1627682 28.279948,49.3697773 28.2539062,52.234375 C29.1002646,50.9453061 30.1354105,49.9882844 31.359375,49.3632812 C32.5833395,48.7382781 33.8658787,48.4257812 35.2070312,48.4257812 C37.550793,48.4257812 39.5462157,49.2884028 41.1933594,51.0136719 C42.840503,52.7389409 43.6640625,54.9687363 43.6640625,57.703125 C43.6640625,59.500009 43.2766966,61.1699142 42.5019531,62.7128906 C41.7272097,64.2558671 40.6627672,65.4374959 39.3085938,66.2578125 C37.9544203,67.0781291 36.4179773,67.4882812 34.6992188,67.4882812 C31.7695166,67.4882812 29.3802176,66.4108181 27.53125,64.2558594 C25.6822824,62.1009007 24.7578125,58.5495039 24.7578125,53.6015625 C24.7578125,48.0676807 25.7799377,44.0442834 27.8242188,41.53125 C29.6080818,39.3437391 32.0104016,38.25 35.03125,38.25 C37.2838654,38.25 39.1295501,38.8815041 40.5683594,40.1445312 C42.0071687,41.4075584 42.8697902,43.1523326 43.15625,45.3789062 Z M28.8007812,57.7226562 C28.8007812,58.9335998 29.0579401,60.0924424 29.5722656,61.1992188 C30.0865911,62.3059951 30.805985,63.1490856 31.7304688,63.7285156 C32.6549525,64.3079456 33.6249949,64.5976562 34.640625,64.5976562 C36.1250074,64.5976562 37.4010363,63.9987039 38.46875,62.8007812 C39.5364637,61.6028586 40.0703125,59.9752707 40.0703125,57.9179688 C40.0703125,55.9387922 39.542974,54.379563 38.4882812,53.2402344 C37.4335885,52.1009058 36.1054768,51.53125 34.5039062,51.53125 C32.9153566,51.53125 31.5677139,52.1009058 30.4609375,53.2402344 C29.3541611,54.379563 28.8007812,55.8736887 28.8007812,57.7226562 Z M65.4023438,45.3789062 L61.90625,45.6523438 C61.5937484,44.2721285 61.1510445,43.2695344 60.578125,42.6445312 C59.6275994,41.6419221 58.4557361,41.140625 57.0625,41.140625 C55.9427027,41.140625 54.9596396,41.4531219 54.1132812,42.078125 C53.0065049,42.8854207 52.1341178,44.0637943 51.4960938,45.6132812 C50.8580697,47.1627682 50.5260418,49.3697773 50.5,52.234375 C51.3463584,50.9453061 52.3815043,49.9882844 53.6054688,49.3632812 C54.8294332,48.7382781 56.1119725,48.4257812 57.453125,48.4257812 C59.7968867,48.4257812 61.7923095,49.2884028 63.4394531,51.0136719 C65.0865968,52.7389409 65.9101562,54.9687363 65.9101562,57.703125 C65.9101562,59.500009 65.5227903,61.1699142 64.7480469,62.7128906 C63.9733034,64.2558671 62.9088609,65.4374959 61.5546875,66.2578125 C60.2005141,67.0781291 58.6640711,67.4882812 56.9453125,67.4882812 C54.0156104,67.4882812 51.6263113,66.4108181 49.7773438,64.2558594 C47.9283762,62.1009007 47.0039062,58.5495039 47.0039062,53.6015625 C47.0039062,48.0676807 48.0260314,44.0442834 50.0703125,41.53125 C51.8541756,39.3437391 54.2564953,38.25 57.2773438,38.25 C59.5299592,38.25 61.3756438,38.8815041 62.8144531,40.1445312 C64.2532624,41.4075584 65.115884,43.1523326 65.4023438,45.3789062 Z M51.046875,57.7226562 C51.046875,58.9335998 51.3040339,60.0924424 51.8183594,61.1992188 C52.3326849,62.3059951 53.0520787,63.1490856 53.9765625,63.7285156 C54.9010463,64.3079456 55.8710887,64.5976562 56.8867188,64.5976562 C58.3711012,64.5976562 59.6471301,63.9987039 60.7148438,62.8007812 C61.7825574,61.6028586 62.3164062,59.9752707 62.3164062,57.9179688 C62.3164062,55.9387922 61.7890678,54.379563 60.734375,53.2402344 C59.6796822,52.1009058 58.3515705,51.53125 56.75,51.53125 C55.1614504,51.53125 53.8138076,52.1009058 52.7070312,53.2402344 C51.6002549,54.379563 51.046875,55.8736887 51.046875,57.7226562 Z" id="66" fill="#009D94"></path>
                </g>
            </g>
        </g>
    </g>
</svg>