<?xml version="1.0" encoding="UTF-8"?>
<svg width="31px" height="36px" viewBox="0 0 31 36" version="1.1" xmlns="http://www.w3.org/2000/svg" xmlns:xlink="http://www.w3.org/1999/xlink">
    <!-- Generator: Sketch 52.4 (67378) - http://www.bohemiancoding.com/sketch -->
    <title>Group 24</title>
    <desc>Created with Sketch.</desc>
    <defs>
        <polygon id="path-1" points="0.0003 0.989 30.57 0.989 30.57 31.5583 0.0003 31.5583"></polygon>
        <polygon id="path-3" points="0 36.0113 30.57 36.0113 30.57 1.0003 0 1.0003"></polygon>
    </defs>
    <g id="Layout" stroke="none" stroke-width="1" fill="none" fill-rule="evenodd">
        <g id="newsletter-ny-copy" transform="translate(-70.000000, -1975.000000)">
            <g id="Group-24" transform="translate(70.000000, 1974.000000)">
                <g id="Group-3" transform="translate(0.000000, 0.011300)">
                    <mask id="mask-2" fill="white">
                        <use xlink:href="#path-1"></use>
                    </mask>
                    <g id="Clip-2"></g>
                    <path d="M30.5703,16.2733 C30.5703,24.7153 23.7273,31.5583 15.2853,31.5583 C6.8433,31.5583 0.0003,24.7153 0.0003,16.2733 C0.0003,7.8323 6.8433,0.9883 15.2853,0.9883 C23.7273,0.9883 30.5703,7.8323 30.5703,16.2733" id="Fill-1" fill="#EE4036" mask="url(#mask-2)"></path>
                </g>
                <path d="M27.0366,16.2846 C27.0366,22.7746 21.7756,28.0366 15.2856,28.0366 C8.7946,28.0366 3.5336,22.7746 3.5336,16.2846 C3.5336,9.7956 8.7946,4.5336 15.2856,4.5336 C21.7756,4.5336 27.0366,9.7956 27.0366,16.2846" id="Fill-4" fill="#FFFFFF"></path>
                <path d="M15.9838,16.2846 C15.9838,16.6716 15.6708,16.9836 15.2848,16.9836 C14.8998,16.9836 14.5868,16.6716 14.5868,16.2846 C14.5868,15.8986 14.8998,15.5866 15.2848,15.5866 C15.6708,15.5866 15.9838,15.8986 15.9838,16.2846" id="Fill-6" fill="#404041"></path>
                <mask id="mask-4" fill="white">
                    <use xlink:href="#path-3"></use>
                </mask>
                <g id="Clip-9"></g>
                <polygon id="Fill-8" fill="#404041" mask="url(#mask-4)" points="14.946 6.3203 15.624 6.3203 15.624 5.2723 14.946 5.2723"></polygon>
                <polygon id="Fill-10" fill="#404041" mask="url(#mask-4)" points="25.249 16.6243 26.296 16.6243 26.296 15.9453 25.249 15.9453"></polygon>
                <polygon id="Fill-11" fill="#404041" mask="url(#mask-4)" points="14.946 27.2973 15.624 27.2973 15.624 26.2493 14.946 26.2493"></polygon>
                <polygon id="Fill-12" fill="#404041" mask="url(#mask-4)" points="4.273 16.6243 5.321 16.6243 5.321 15.9453 4.273 15.9453"></polygon>
                <polygon id="Fill-13" fill="#404041" mask="url(#mask-4)" points="20.2519 7.6411 19.6529 7.3231 20.1439 6.3971 20.7429 6.7151"></polygon>
                <polygon id="Fill-14" fill="#404041" mask="url(#mask-4)" points="23.9296 21.2524 24.2466 20.6524 25.1726 21.1444 24.8556 21.7424"></polygon>
                <polygon id="Fill-15" fill="#404041" mask="url(#mask-4)" points="10.3183 24.9292 10.9173 25.2472 10.4263 26.1732 9.8273 25.8552"></polygon>
                <polygon id="Fill-16" fill="#404041" mask="url(#mask-4)" points="6.6406 11.3178 6.3236 11.9178 5.3976 11.4258 5.7146 10.8278"></polygon>
                <polygon id="Fill-17" fill="#404041" mask="url(#mask-4)" points="24.207 11.8354 23.884 11.2384 24.805 10.7394 25.128 11.3354"></polygon>
                <polygon id="Fill-18" fill="#404041" mask="url(#mask-4)" points="19.7353 25.2065 20.3313 24.8835 20.8303 25.8055 20.2343 26.1285"></polygon>
                <polygon id="Fill-19" fill="#404041" mask="url(#mask-4)" points="6.3637 20.7348 6.6867 21.3318 5.7657 21.8308 5.4427 21.2348"></polygon>
                <polygon id="Fill-20" fill="#404041" mask="url(#mask-4)" points="10.8349 7.3637 10.2389 7.6867 9.7399 6.7647 10.3359 6.4417"></polygon>
                <polygon id="Fill-21" fill="#404041" mask="url(#mask-4)" points="15.116 16.2843 15.455 16.2843 15.455 8.3863 15.116 8.3863"></polygon>
                <polygon id="Fill-22" fill="#404041" mask="url(#mask-4)" points="15.285 16.4963 20.226 16.4963 20.226 16.0733 15.285 16.0733"></polygon>
                <path d="M29.3325,35.3403 C29.3325,35.7113 23.0435,36.0113 15.2855,36.0113 C7.5265,36.0113 1.2375,35.7113 1.2375,35.3403 C1.2375,34.9703 7.5265,34.6703 15.2855,34.6703 C23.0435,34.6703 29.3325,34.9703 29.3325,35.3403" id="Fill-23" fill="#E6E7E8" mask="url(#mask-4)"></path>
            </g>
        </g>
    </g>
</svg>