<svg xmlns="http://www.w3.org/2000/svg" viewBox="0 0 30.57 35.01"><defs><style>.cls-1{fill:#ee4036;}.cls-2{fill:#fff;}.cls-3{fill:#404041;}.cls-4{fill:#e6e7e8;}</style></defs><title>clock3</title><g id="Ebene_2" data-name="Ebene 2"><g id="OBJECTS"><circle class="cls-1" cx="15.29" cy="15.29" r="15.29"/><circle class="cls-2" cx="15.29" cy="15.29" r="11.75"/><circle class="cls-3" cx="15.29" cy="15.29" r="0.7"/><rect class="cls-3" x="14.95" y="4.27" width="0.68" height="1.05"/><rect class="cls-3" x="25.43" y="14.76" width="0.68" height="1.05" transform="translate(41.06 -10.49) rotate(90)"/><rect class="cls-3" x="14.95" y="25.25" width="0.68" height="1.05" transform="translate(30.57 51.55) rotate(180)"/><rect class="cls-3" x="4.46" y="14.76" width="0.68" height="1.05" transform="translate(-10.49 20.08) rotate(-90)"/><rect class="cls-3" x="19.86" y="5.5" width="0.68" height="1.05" transform="translate(5.17 -8.76) rotate(27.93)"/><rect class="cls-3" x="24.21" y="19.67" width="0.68" height="1.05" transform="translate(53.9 7.97) rotate(117.93)"/><rect class="cls-3" x="10.03" y="24.03" width="0.68" height="1.05" transform="translate(8.04 51.1) rotate(-152.07)"/><rect class="cls-3" x="5.68" y="9.85" width="0.68" height="1.05" transform="translate(-5.96 10.83) rotate(-62.07)"/><rect class="cls-3" x="24.17" y="9.76" width="0.68" height="1.05" transform="translate(21.87 -16.16) rotate(61.54)"/><rect class="cls-3" x="19.94" y="23.98" width="0.68" height="1.05" transform="translate(49.79 36.39) rotate(151.54)"/><rect class="cls-3" x="5.73" y="19.76" width="0.68" height="1.05" transform="translate(-8.88 35.28) rotate(-118.46)"/><rect class="cls-3" x="9.95" y="5.54" width="0.68" height="1.05" transform="translate(-1.65 5.64) rotate(-28.46)"/><rect class="cls-3" x="15.12" y="7.39" width="0.34" height="7.9"/><rect class="cls-3" x="17.54" y="12.81" width="0.42" height="4.94" transform="translate(33.04 -2.47) rotate(90)"/><ellipse class="cls-4" cx="15.29" cy="34.34" rx="14.05" ry="0.67"/></g></g></svg>