<svg xmlns="http://www.w3.org/2000/svg" viewBox="0 0 500 359.66"><defs><style>.cls-1{isolation:isolate;}.cls-2{fill:#d0ebe9;}.cls-3,.cls-38{fill:#231f20;}.cls-3,.cls-37{opacity:0.17;mix-blend-mode:multiply;}.cls-4{fill:#009d94;}.cls-5{fill:#00978e;}.cls-6{fill:#00aea0;}.cls-7{fill:#008981;}.cls-8{fill:#007e76;}.cls-9{fill:#5bc0a4;}.cls-10{fill:#00a69c;}.cls-11{fill:#00948b;}.cls-12{fill:#5a4a42;}.cls-13{fill:#493c35;}.cls-14{fill:#312620;}.cls-15{fill:#f1f1f2;}.cls-16{fill:#dfe0e1;}.cls-17{fill:#006955;}.cls-18{fill:#fff;}.cls-19{fill:#ededee;}.cls-20{fill:#dbdcdd;}.cls-21{fill:#006838;}.cls-22{fill:#00addd;}.cls-23{fill:#00bdf2;}.cls-24{fill:#c1b49a;}.cls-25{fill:#ada28b;}.cls-26{fill:#c4c5c7;}.cls-27{fill:#d0d2d3;}.cls-28{fill:#716558;}.cls-29{fill:none;stroke:#a6a8ab;stroke-miterlimit:10;stroke-width:0.5px;}.cls-30{fill:#a4a3a3;}.cls-31{fill:#939393;}.cls-32{fill:#eac23d;}.cls-33{fill:#fbdd6e;}.cls-34{fill:#fceb84;}.cls-35{fill:#eccf3d;}.cls-36{fill:#a6a8ab;}.cls-39{fill:#eb008b;}.cls-40{fill:#faaf40;}.cls-41{fill:#f7993e;}.cls-42{fill:#f6923d;}.cls-43{fill:#8bc53f;}.cls-44{fill:#7db138;}.cls-45{fill:#a5cd39;}.cls-46{fill:#96bb33;}.cls-47{fill:#b53531;}.cls-48{fill:#e8c899;}.cls-49{fill:#473146;}.cls-50{fill:#6d9a6f;}.cls-51{fill:#7a804b;}.cls-52{fill:#005e71;}.cls-53{fill:#41352e;}.cls-54{fill:#9ac886;}.cls-55{fill:#59815d;}.cls-56{fill:#897429;}.cls-57{fill:#ad8f36;}.cls-58{fill:#d7ae29;}.cls-59{fill:#ee4036;}.cls-60{fill:#404041;}</style></defs><title>wohnzimmer</title><g class="cls-1"><g id="BACKGROUND"><rect class="cls-2" width="500" height="338.15"/></g><g id="OBJECTS"><circle class="cls-3" cx="80.18" cy="105.5" r="31"/><ellipse class="cls-3" cx="61.39" cy="351.75" rx="42.4" ry="2.75"/><ellipse class="cls-3" cx="250" cy="351.87" rx="118.44" ry="7.79"/><ellipse class="cls-3" cx="438.14" cy="349.9" rx="47.05" ry="3.9"/><path class="cls-4" d="M176.58,213.45h62.14A12.25,12.25,0,0,1,251,225.69v75a20.83,20.83,0,0,1-20.83,20.83H176.58a20.83,20.83,0,0,1-20.83-20.83V234.28A20.83,20.83,0,0,1,176.58,213.45Z"/><path class="cls-5" d="M262.23,213.45h63.12a20.83,20.83,0,0,1,20.83,20.83v66.44a20.83,20.83,0,0,1-20.83,20.83H271.8A20.83,20.83,0,0,1,251,300.72v-76A11.26,11.26,0,0,1,262.23,213.45Z"/><path class="cls-6" d="M394,261.7c-1.24-11.23-11.22-15.39-23.7-15.39s-24.12-1.25-24.12,17.88v33.68c0,4.58-5.82,7.07-10.39,7.07H166.14c-4.57,0-10.4-2.49-10.4-7.07V264.19c0-19.13-11.64-17.88-24.11-17.88s-22.46,4.16-23.7,15.39,3.74,20.37,10.81,20.37h4.57c6.65,0,11.44,2.91,11.44,10v21c0,8.11,3.53,13.93,13.93,13.93H353.25c10.4,0,13.93-5.82,13.93-13.93v-21c0-7.07,4.79-10,11.44-10h4.57C390.26,282.07,395.25,272.92,394,261.7Z"/><rect class="cls-7" x="155.74" y="285.14" width="95.22" height="19.8" rx="7.48" ry="7.48"/><rect class="cls-8" x="250.96" y="285.14" width="95.22" height="19.8" rx="7.48" ry="7.48"/><path class="cls-9" d="M155.74,271.51v-7.32c0-19.13-11.64-17.88-24.11-17.88s-22.46,4.16-23.7,15.39A29.3,29.3,0,0,0,108,269s-1.05-14.15,15.31-15.81S155.74,253.22,155.74,271.51Z"/><path class="cls-9" d="M346.18,271.51v-7.32c0-19.13,11.65-17.88,24.12-17.88s22.46,4.16,23.7,15.39a29.3,29.3,0,0,1-.08,7.33s1-14.15-15.31-15.81S346.19,253.22,346.18,271.51Z"/><path class="cls-6" d="M240.78,213.45H173.07a17.37,17.37,0,0,0-17.33,17.32v9.59c.4-6.77,2.77-18.74,14.7-18.74H237c8.87,0,14,3,14,12.75V223.63A10.21,10.21,0,0,0,240.78,213.45Z"/><path class="cls-10" d="M261.15,213.45h67.71a17.37,17.37,0,0,1,17.32,17.32v9.59c-.39-6.77-2.76-18.74-14.69-18.74H265c-8.87,0-14,3-14,12.75V223.63A10.22,10.22,0,0,1,261.15,213.45Z"/><path class="cls-11" d="M244.75,285.14H162a6.24,6.24,0,0,0-6.22,6.22V295s1.26-5.51,8.32-5.51h78.58c7.07,0,8.32,5.51,8.32,5.51v-3.68A6.23,6.23,0,0,0,244.75,285.14Z"/><path class="cls-7" d="M340,285.14H257.18a6.24,6.24,0,0,0-6.22,6.22V295s1.26-5.51,8.32-5.51h78.58c7.07,0,8.32,5.51,8.32,5.51v-3.68A6.23,6.23,0,0,0,340,285.14Z"/><path class="cls-12" d="M251,327H150.15s1.66,6.16,6.93,6.16H344.85c5.27,0,6.93-6.16,6.93-6.16Z"/><path class="cls-13" d="M163.9,333.14s-7.21,20-7.48,21.07,4.43,1.38,5.54,0,15.8-21.07,15.8-21.07Z"/><path class="cls-13" d="M338,333.14s7.21,20,7.48,21.07-4.43,1.38-5.54,0-15.8-21.07-15.8-21.07Z"/><path class="cls-13" d="M338,333.14s7.21,20,7.48,21.07-4.43,1.38-5.54,0-15.8-21.07-15.8-21.07Z"/><path class="cls-14" d="M159.14,355.14a4,4,0,0,0,2.82-.93c1.11-1.39,15.8-21.07,15.8-21.07H163.9l-.94,2.61c2.73.83,5.75,2.5,4.12,5.62S161.7,350.86,159.14,355.14Z"/><path class="cls-14" d="M342.79,355.14a4,4,0,0,1-2.82-.93c-1.11-1.39-15.8-21.07-15.8-21.07H338l.94,2.61c-2.73.83-5.75,2.5-4.12,5.62S340.23,350.86,342.79,355.14Z"/><path class="cls-14" d="M150.15,327a10.67,10.67,0,0,0,.78,1.91H351a10.33,10.33,0,0,0,.79-1.91H150.15Z"/><path class="cls-15" d="M161.6,289.18a3.89,3.89,0,0,1-5.11-4,87.29,87.29,0,0,0-.26-17.45,86.65,86.65,0,0,0-3.88-17,3.89,3.89,0,0,1,4-5.1,83.78,83.78,0,0,0,34.46-4.15,3.89,3.89,0,0,1,5.1,4,83.94,83.94,0,0,0,4.14,34.46,3.88,3.88,0,0,1-4,5.1,83.92,83.92,0,0,0-34.45,4.14Z"/><path class="cls-16" d="M200.06,279.94a83.94,83.94,0,0,1-4.14-34.46,3.89,3.89,0,0,0-5.1-4l-1.18.39c2.66,32.55-23.39,40.23-33,41.95,0,.47-.07.93-.11,1.37a3.89,3.89,0,0,0,5.11,4A83.92,83.92,0,0,1,196.05,285,3.88,3.88,0,0,0,200.06,279.94Z"/><path class="cls-15" d="M340.33,289.18a3.88,3.88,0,0,0,5.1-4,88.16,88.16,0,0,1,.27-17.45,86.65,86.65,0,0,1,3.88-17,3.89,3.89,0,0,0-4-5.1,83.73,83.73,0,0,1-34.46-4.15,3.89,3.89,0,0,0-5.1,4,83.94,83.94,0,0,1-4.14,34.46,3.88,3.88,0,0,0,4,5.1,86.55,86.55,0,0,1,17.44.27A87.46,87.46,0,0,1,340.33,289.18Z"/><path class="cls-16" d="M301.87,279.94A83.94,83.94,0,0,0,306,245.48a3.89,3.89,0,0,1,5.1-4l1.18.39c-2.66,32.55,23.39,40.23,33,41.95,0,.47.07.93.1,1.37a3.88,3.88,0,0,1-5.1,4,87.46,87.46,0,0,0-17-3.87,86.55,86.55,0,0,0-17.44-.27A3.88,3.88,0,0,1,301.87,279.94Z"/><rect class="cls-17" x="409.68" y="269.76" width="56.91" height="1.22"/><path class="cls-18" d="M465.17,271H411.1s-.4,3.25,2.65,3.25h48.78C465.57,274.23,465.17,271,465.17,271Z"/><polygon class="cls-18" points="414.78 274.23 407.46 350.24 412.34 350.24 420.87 274.23 414.78 274.23"/><polygon class="cls-19" points="412.34 350.24 420.87 274.23 419.65 274.23 411.21 350.24 412.34 350.24"/><polygon class="cls-18" points="461.49 274.23 468.81 350.24 463.93 350.24 455.4 274.23 461.49 274.23"/><polygon class="cls-19" points="463.93 350.24 455.4 274.23 456.62 274.23 465.06 350.24 463.93 350.24"/><path class="cls-19" d="M411.58,273.22a2.42,2.42,0,0,0,2.17,1h48.78a2.41,2.41,0,0,0,2.16-1Z"/><polygon class="cls-18" points="420.46 277.89 455.81 277.89 455.4 274.23 420.87 274.23 420.46 277.89"/><polygon class="cls-20" points="420.57 276.94 455.7 276.94 455.81 277.89 420.46 277.89 420.57 276.94"/><polygon class="cls-18" points="415.96 318.01 460.23 318.01 461 324.07 415.28 324.07 415.96 318.01"/><polygon class="cls-19" points="415.28 322.74 460.83 322.74 461 324.07 415.28 324.07 415.28 322.74"/><path class="cls-21" d="M437.9,244.53l-.49-.06c2.4-19.67,5.91-31.4,5.94-31.51l.48.14C443.8,213.22,440.3,224.91,437.9,244.53Z"/><path class="cls-21" d="M437.47,240c-.87-18.63-2.67-33.85-2.69-34l.5-.06c0,.15,1.82,15.39,2.69,34Z"/><path class="cls-21" d="M437.89,245.39c-1-19.42-6.79-24.27-6.85-24.32l.31-.39c.25.2,6.07,5,7,24.68Z"/><path class="cls-22" d="M435.51,212a4,4,0,0,1-4.12-2.77,9.18,9.18,0,0,1,.52-6.48,5.83,5.83,0,0,1,2.84,2.57C435.79,207.24,435.51,212,435.51,212Z"/><path class="cls-22" d="M435.4,212a3.93,3.93,0,0,0,3.39-3.62,9.13,9.13,0,0,0-2-6.2,5.83,5.83,0,0,0-2.19,3.15C434.06,207.44,435.4,212,435.4,212Z"/><path class="cls-23" d="M434.38,202.06a8.18,8.18,0,0,0-2,6c.4,3.48,3.13,3.92,3.13,3.92a4.13,4.13,0,0,0,2.17-4.52A8.14,8.14,0,0,0,434.38,202.06Z"/><path class="cls-21" d="M436.75,211.11c.08-.7-.21-.59-.53-.06s-.38-.48-.86-.43-.24,1.15-.75.61-.73-.48-.5.18-1.5-.6-.76.17a2.74,2.74,0,0,0,4.18-.48C438.07,210.19,436.69,211.67,436.75,211.11Z"/><path class="cls-22" d="M442.56,217.37a3.94,3.94,0,0,1-2.9-4,9.12,9.12,0,0,1,2.74-5.89,5.76,5.76,0,0,1,1.77,3.39C444.47,213,442.56,217.37,442.56,217.37Z"/><path class="cls-22" d="M442.45,217.34a4,4,0,0,0,4.45-2.22,9.13,9.13,0,0,0,.31-6.49,5.81,5.81,0,0,0-3.15,2.19C442.79,212.59,442.45,217.34,442.45,217.34Z"/><path class="cls-23" d="M445,207.66a8.16,8.16,0,0,0-4,4.94c-.83,3.4,1.57,4.77,1.57,4.77s2.77-.09,3.61-3.49A8.16,8.16,0,0,0,445,207.66Z"/><path class="cls-21" d="M444,217c.32-.63,0-.62-.47-.24s-.2-.58-.67-.7-.61,1-.91.31-.52-.71-.53,0c0,.56-1.2-1.09-.77-.11a3.38,3.38,0,0,0,1.8,1.45,3.43,3.43,0,0,0,2.28-.44C445.59,216.57,443.78,217.47,444,217Z"/><path class="cls-22" d="M434.13,225.2a3.94,3.94,0,0,1-4.88-.94,9.15,9.15,0,0,1-2.05-6.17,5.79,5.79,0,0,1,3.62,1.26C432.53,220.72,434.13,225.2,434.13,225.2Z"/><path class="cls-22" d="M434,225.25a3.94,3.94,0,0,0,1.71-4.66,9.11,9.11,0,0,0-4.23-4.93,5.79,5.79,0,0,0-.79,3.75C431,221.57,434,225.25,434,225.25Z"/><path class="cls-23" d="M429.21,216.5a8.12,8.12,0,0,0,.51,6.31c1.72,3.05,4.41,2.39,4.41,2.39a4.13,4.13,0,0,0,.23-5A8.16,8.16,0,0,0,429.21,216.5Z"/><path class="cls-21" d="M434.92,223.9c-.2-.67-.42-.46-.5.15s-.55-.29-1-.05.24,1.14-.45.85-.86-.16-.39.36-1.61,0-.63.45a2.74,2.74,0,0,0,3.66-2.07C435.79,222.54,435.08,224.44,434.92,223.9Z"/><path class="cls-24" d="M444.73,228.26s-3.13,4.75-8.13,5-6.5,2.25-6.5,2.25a12.36,12.36,0,0,1,4.75,11.62c-1,7.75-8.5,11.38-.12,22.63h7.5s5.25-5.75,3.62-11.88-4.75-8.87-4-16.25C442.47,235.56,444.35,234.13,444.73,228.26Z"/><path class="cls-25" d="M441.85,241.63c.62-6.07,2.5-7.5,2.88-13.37a13.42,13.42,0,0,1-4,3.72c2.31.71,1.31,2.42.09,7-1.33,5-1.66,8.92,1.34,16.09s.08,13.25-3.42,13.33A11.39,11.39,0,0,1,432.9,267a27.88,27.88,0,0,0,1.83,2.76h7.5s5.25-5.75,3.62-11.88S441.1,249,441.85,241.63Z"/><rect class="cls-17" x="18.92" y="249.21" width="83.43" height="1.43"/><path class="cls-18" d="M100.77,250.64H20.5s-.42,3.82,2.32,3.82H98.45C101.19,254.46,100.77,250.64,100.77,250.64Z"/><rect class="cls-18" x="23.22" y="254.46" width="74.83" height="86.69"/><rect class="cls-16" x="23.22" y="254.46" width="74.83" height="1.79"/><path class="cls-16" d="M60.64,341.15H24.79s.59,2.94,2.64,2.94H93.84c2.06,0,2.64-2.94,2.64-2.94Z"/><polygon class="cls-26" points="29.05 344.09 28.32 351.87 31.11 351.87 35.81 344.09 29.05 344.09"/><polygon class="cls-26" points="92.22 344.09 92.95 351.87 90.16 351.87 85.46 344.09 92.22 344.09"/><path class="cls-26" d="M60.64,341.15H24.79a6,6,0,0,0,.55,1.47H95.93a5.56,5.56,0,0,0,.55-1.47Z"/><rect class="cls-27" x="27.64" y="266.05" width="65.99" height="27.71" rx="2.78" ry="2.78"/><rect class="cls-15" x="27.64" y="264.29" width="65.99" height="27.7" rx="2.78" ry="2.78"/><rect class="cls-27" x="27.64" y="300.74" width="65.99" height="27.71" rx="2.78" ry="2.78"/><rect class="cls-15" x="27.64" y="298.98" width="65.99" height="27.7" rx="2.78" ry="2.78"/><path class="cls-28" d="M62.44,278.14a1.81,1.81,0,1,1-1.8-1.81A1.8,1.8,0,0,1,62.44,278.14Z"/><path class="cls-28" d="M62.44,312.79a1.81,1.81,0,1,1-1.8-1.8A1.81,1.81,0,0,1,62.44,312.79Z"/><line class="cls-29" x1="76.25" y1="194.71" x2="76.25" y2="220.87"/><rect class="cls-30" x="58.32" y="197.04" width="4.64" height="49.96"/><rect class="cls-31" x="61.42" y="197.04" width="1.53" height="49.96"/><rect class="cls-32" x="35.64" y="176.21" width="50" height="5.33"/><rect class="cls-33" x="35.64" y="181.54" width="50" height="31"/><rect class="cls-34" x="41.42" y="181.54" width="7.67" height="31"/><rect class="cls-35" x="41.42" y="176.21" width="7.67" height="5.33"/><rect class="cls-31" x="56.3" y="247" width="8.67" height="2.2"/><path class="cls-36" d="M76.31,222.5h0a.63.63,0,0,1-.62-.63v-1.31a.62.62,0,0,1,.62-.62h0a.63.63,0,0,1,.63.62v1.31A.63.63,0,0,1,76.31,222.5Z"/><g class="cls-37"><rect class="cls-38" x="378.44" y="188.14" width="4.96" height="5.21"/><rect class="cls-38" x="451.58" y="188.14" width="4.96" height="5.21"/></g><rect class="cls-3" x="357.87" y="182.93" width="119.23" height="5.21"/><rect class="cls-18" x="357.87" y="180.53" width="119.23" height="5.21"/><rect class="cls-18" x="378.44" y="185.74" width="4.96" height="5.21"/><rect class="cls-18" x="451.58" y="185.74" width="4.96" height="5.21"/><path class="cls-39" d="M383.06,136.31s1.17-.83,1.27-1.61a2.32,2.32,0,0,0-1.95,1.24,1.13,1.13,0,1,0-.59,0,2.34,2.34,0,0,0-2-1.24c.1.78,1.27,1.61,1.27,1.61a2.77,2.77,0,0,0-2.1-.25,4.76,4.76,0,0,0,6.16,0A2.76,2.76,0,0,0,383.06,136.31Z"/><rect class="cls-40" x="365.67" y="159.48" width="30.68" height="2.41" rx="0.56" ry="0.56"/><polygon class="cls-40" points="381.01 161.88 366.88 161.88 370.92 179.28 381.01 179.28 391.1 179.28 395.15 161.88 381.01 161.88"/><path class="cls-41" d="M391.1,179.28l4-17.4H366.88l.22.94h20.69c2.3,0-.75,12.88-1.64,16.46Z"/><rect class="cls-42" x="372.8" y="179.28" width="4.46" height="1.25"/><rect class="cls-42" x="384.76" y="179.28" width="4.46" height="1.25"/><path class="cls-43" d="M382.1,136.77h0c-13.68,0-6.74,22.71-6.74,22.71h13.5S395.78,136.8,382.1,136.77Z"/><path class="cls-44" d="M387,138.2c3.74,3,2.7,17.73-2.24,17.8s-5-3.57-6.16-7.41a4.82,4.82,0,0,0-4.85-3.49c-.83,6.48,1.58,14.38,1.58,14.38h13.5S393.82,143.18,387,138.2Z"/><path class="cls-45" d="M372,159.48s-6-11.25,0-13.3,7.22,6.69,5.35,13.3Z"/><path class="cls-46" d="M374.74,158.4a8.61,8.61,0,0,1-3.51-.54c.43,1,.77,1.62.77,1.62h5.35c1.77-6.25.75-14.39-4.42-13.53C378,146.12,377.63,158.32,374.74,158.4Z"/><path class="cls-18" d="M405.86,177.37v2.29h25.4c1.78,0,2.27-.2,2.27-1.27s-2.07-1.22-3.59-1.22S405.86,177.37,405.86,177.37Z"/><path class="cls-47" d="M405.23,180.05h25.6c2.7,0,3-.6,3-1.53s-.14-1.54-3-1.54h-25.6v.39h25.6c2.43,0,2.57.3,2.57,1.15s-.14,1.14-2.57,1.14h-25.6Z"/><rect class="cls-27" x="405.86" y="177.58" width="24.58" height="0.08"/><rect class="cls-27" x="405.86" y="177.81" width="24.58" height="0.08"/><rect class="cls-27" x="405.86" y="178.03" width="24.58" height="0.08"/><rect class="cls-27" x="405.86" y="178.26" width="24.58" height="0.08"/><rect class="cls-27" x="405.86" y="178.48" width="24.58" height="0.08"/><rect class="cls-27" x="405.86" y="178.71" width="24.58" height="0.08"/><rect class="cls-27" x="405.86" y="178.94" width="24.58" height="0.08"/><rect class="cls-27" x="405.86" y="179.16" width="24.58" height="0.08"/><rect class="cls-27" x="405.86" y="179.39" width="24.58" height="0.08"/><path class="cls-18" d="M406.5,174.29v2.3h25.39c1.78,0,2.27-.2,2.27-1.27s-2.06-1.22-3.59-1.22S406.5,174.29,406.5,174.29Z"/><path class="cls-48" d="M405.86,177h25.6c2.7,0,3-.6,3-1.54s-.14-1.53-3-1.53h-25.6v.38h25.6c2.43,0,2.58.3,2.58,1.15s-.15,1.15-2.58,1.15h-25.6Z"/><rect class="cls-27" x="406.5" y="174.51" width="24.58" height="0.08"/><rect class="cls-27" x="406.5" y="174.73" width="24.58" height="0.08"/><rect class="cls-27" x="406.5" y="174.96" width="24.58" height="0.08"/><rect class="cls-27" x="406.5" y="175.19" width="24.58" height="0.08"/><rect class="cls-27" x="406.5" y="175.41" width="24.58" height="0.08"/><rect class="cls-27" x="406.5" y="175.64" width="24.58" height="0.08"/><rect class="cls-27" x="406.5" y="175.86" width="24.58" height="0.08"/><rect class="cls-27" x="406.5" y="176.09" width="24.58" height="0.08"/><rect class="cls-27" x="406.5" y="176.31" width="24.58" height="0.08"/><path class="cls-18" d="M408.73,168.1v2.3h25.39c1.78,0,2.27-.21,2.27-1.27s-2.06-1.23-3.59-1.23S408.73,168.1,408.73,168.1Z"/><path class="cls-49" d="M408.09,170.78h25.6c2.7,0,3-.6,3-1.53s-.14-1.54-3-1.54h-25.6v.39h25.6c2.43,0,2.58.3,2.58,1.15s-.15,1.15-2.58,1.15h-25.6Z"/><rect class="cls-27" x="408.73" y="168.31" width="24.58" height="0.08"/><rect class="cls-27" x="408.73" y="168.54" width="24.58" height="0.08"/><rect class="cls-27" x="408.73" y="168.76" width="24.58" height="0.08"/><rect class="cls-27" x="408.73" y="168.99" width="24.58" height="0.08"/><rect class="cls-27" x="408.73" y="169.22" width="24.58" height="0.08"/><rect class="cls-27" x="408.73" y="169.44" width="24.58" height="0.08"/><rect class="cls-27" x="408.73" y="169.67" width="24.58" height="0.08"/><rect class="cls-27" x="408.73" y="169.89" width="24.58" height="0.08"/><rect class="cls-27" x="408.73" y="170.12" width="24.58" height="0.08"/><path class="cls-18" d="M406.24,155.81v2.29h25.4c1.77,0,2.27-.2,2.27-1.27s-2.07-1.22-3.59-1.22S406.24,155.81,406.24,155.81Z"/><path class="cls-47" d="M405.61,158.49h25.6c2.7,0,3-.6,3-1.54s-.13-1.53-3-1.53h-25.6v.39h25.6c2.43,0,2.57.3,2.57,1.14s-.14,1.15-2.57,1.15h-25.6Z"/><rect class="cls-27" x="406.24" y="156.02" width="24.58" height="0.08"/><rect class="cls-27" x="406.24" y="156.25" width="24.58" height="0.08"/><rect class="cls-27" x="406.24" y="156.47" width="24.58" height="0.08"/><rect class="cls-27" x="406.24" y="156.7" width="24.58" height="0.08"/><rect class="cls-27" x="406.24" y="156.92" width="24.58" height="0.08"/><rect class="cls-27" x="406.24" y="157.15" width="24.58" height="0.08"/><rect class="cls-27" x="406.24" y="157.38" width="24.58" height="0.08"/><rect class="cls-27" x="406.24" y="157.6" width="24.58" height="0.08"/><rect class="cls-27" x="406.24" y="157.83" width="24.58" height="0.08"/><path class="cls-18" d="M407.37,152.73V155h25.39c1.78,0,2.27-.2,2.27-1.27s-2.07-1.22-3.59-1.22S407.37,152.73,407.37,152.73Z"/><path class="cls-50" d="M406.73,155.42h25.6c2.7,0,3-.6,3-1.54s-.14-1.53-3-1.53h-25.6v.38h25.6c2.43,0,2.58.3,2.58,1.15s-.15,1.15-2.58,1.15h-25.6Z"/><rect class="cls-27" x="407.37" y="152.95" width="24.58" height="0.08"/><rect class="cls-27" x="407.37" y="153.17" width="24.58" height="0.08"/><rect class="cls-27" x="407.37" y="153.4" width="24.58" height="0.08"/><rect class="cls-27" x="407.37" y="153.63" width="24.58" height="0.08"/><rect class="cls-27" x="407.37" y="153.85" width="24.58" height="0.08"/><rect class="cls-27" x="407.37" y="154.08" width="24.58" height="0.08"/><rect class="cls-27" x="407.37" y="154.3" width="24.58" height="0.08"/><rect class="cls-27" x="407.37" y="154.53" width="24.58" height="0.08"/><rect class="cls-27" x="407.37" y="154.75" width="24.58" height="0.08"/><path class="cls-18" d="M432.44,171.22v2.3H407.05c-1.78,0-2.27-.21-2.27-1.27s2.07-1.22,3.59-1.22S432.44,171.22,432.44,171.22Z"/><path class="cls-51" d="M433.08,173.91h-25.6c-2.7,0-3-.61-3-1.54s.14-1.54,3-1.54h25.6v.39h-25.6c-2.43,0-2.58.3-2.58,1.15s.15,1.15,2.58,1.15h25.6Z"/><rect class="cls-27" x="407.86" y="171.44" width="24.58" height="0.08"/><rect class="cls-27" x="407.86" y="171.66" width="24.58" height="0.08"/><rect class="cls-27" x="407.86" y="171.89" width="24.58" height="0.08"/><rect class="cls-27" x="407.86" y="172.11" width="24.58" height="0.08"/><rect class="cls-27" x="407.86" y="172.34" width="24.58" height="0.08"/><rect class="cls-27" x="407.86" y="172.56" width="24.58" height="0.08"/><rect class="cls-27" x="407.86" y="172.79" width="24.58" height="0.08"/><rect class="cls-27" x="407.86" y="173.02" width="24.58" height="0.08"/><rect class="cls-27" x="407.86" y="173.24" width="24.58" height="0.08"/><path class="cls-18" d="M432.77,165v2.3H407.38c-1.78,0-2.27-.2-2.27-1.27s2.07-1.22,3.59-1.22S432.77,165,432.77,165Z"/><path class="cls-52" d="M433.41,167.71h-25.6c-2.7,0-3-.6-3-1.54s.14-1.53,3-1.53h25.6V165h-25.6c-2.43,0-2.58.31-2.58,1.15s.15,1.15,2.58,1.15h25.6Z"/><rect class="cls-27" x="408.19" y="165.24" width="24.58" height="0.08"/><rect class="cls-27" x="408.19" y="165.47" width="24.58" height="0.08"/><rect class="cls-27" x="408.19" y="165.69" width="24.58" height="0.08"/><rect class="cls-27" x="408.19" y="165.92" width="24.58" height="0.08"/><rect class="cls-27" x="408.19" y="166.14" width="24.58" height="0.08"/><rect class="cls-27" x="408.19" y="166.37" width="24.58" height="0.08"/><rect class="cls-27" x="408.19" y="166.59" width="24.58" height="0.08"/><rect class="cls-27" x="408.19" y="166.82" width="24.58" height="0.08"/><rect class="cls-27" x="408.19" y="167.05" width="24.58" height="0.08"/><path class="cls-18" d="M432.5,162v2.3H407.1c-1.78,0-2.27-.21-2.27-1.27s2.07-1.22,3.59-1.22S432.5,162,432.5,162Z"/><path class="cls-51" d="M433.13,164.64h-25.6c-2.7,0-3-.61-3-1.54s.14-1.54,3-1.54h25.6V162h-25.6c-2.43,0-2.57.3-2.57,1.15s.14,1.15,2.57,1.15h25.6Z"/><rect class="cls-27" x="407.91" y="162.17" width="24.58" height="0.08"/><rect class="cls-27" x="407.91" y="162.39" width="24.58" height="0.08"/><rect class="cls-27" x="407.91" y="162.62" width="24.58" height="0.08"/><rect class="cls-27" x="407.91" y="162.84" width="24.58" height="0.08"/><rect class="cls-27" x="407.91" y="163.07" width="24.58" height="0.08"/><rect class="cls-27" x="407.91" y="163.3" width="24.58" height="0.08"/><rect class="cls-27" x="407.91" y="163.52" width="24.58" height="0.08"/><rect class="cls-27" x="407.91" y="163.75" width="24.58" height="0.08"/><rect class="cls-27" x="407.91" y="163.97" width="24.58" height="0.08"/><path class="cls-18" d="M434.47,158.88v2.3H409.08c-1.78,0-2.27-.21-2.27-1.27s2.06-1.23,3.59-1.23S434.47,158.88,434.47,158.88Z"/><path class="cls-48" d="M435.11,161.56h-25.6c-2.7,0-3-.6-3-1.53s.14-1.54,3-1.54h25.6v.39h-25.6c-2.43,0-2.58.3-2.58,1.15s.15,1.15,2.58,1.15h25.6Z"/><rect class="cls-27" x="409.89" y="159.09" width="24.58" height="0.08"/><rect class="cls-27" x="409.89" y="159.32" width="24.58" height="0.08"/><rect class="cls-27" x="409.89" y="159.55" width="24.58" height="0.08"/><rect class="cls-27" x="409.89" y="159.77" width="24.58" height="0.08"/><rect class="cls-27" x="409.89" y="160" width="24.58" height="0.08"/><rect class="cls-27" x="409.89" y="160.22" width="24.58" height="0.08"/><rect class="cls-27" x="409.89" y="160.45" width="24.58" height="0.08"/><rect class="cls-27" x="409.89" y="160.67" width="24.58" height="0.08"/><rect class="cls-27" x="409.89" y="160.9" width="24.58" height="0.08"/><rect class="cls-12" x="445.75" y="147.74" width="5.6" height="32.39" transform="translate(-28.12 134.64) rotate(-16.56)"/><rect class="cls-53" x="442.78" y="152.94" width="5.6" height="2.05" transform="translate(-25.4 133.37) rotate(-16.56)"/><rect class="cls-53" x="448.73" y="172.94" width="5.6" height="2.05" transform="translate(-30.85 135.9) rotate(-16.56)"/><rect class="cls-50" x="454.86" y="148.36" width="5.6" height="32.39" transform="translate(-24.72 226.53) rotate(-27.1)"/><rect class="cls-54" x="449.59" y="153.66" width="5.6" height="1.19" transform="translate(-20.61 222.99) rotate(-27.1)"/><rect class="cls-54" x="459.88" y="173.74" width="5.6" height="1.19" transform="translate(-28.63 229.89) rotate(-27.1)"/><rect class="cls-55" x="454.86" y="156.44" width="5.6" height="16.24" transform="translate(-24.72 226.53) rotate(-27.1)"/><rect class="cls-56" x="436.39" y="143.18" width="6.74" height="36.78" transform="translate(-19.05 66.77) rotate(-8.5)"/><rect class="cls-57" x="434.32" y="143.33" width="6.74" height="8.86" transform="translate(-17.03 66.32) rotate(-8.5)"/><path class="cls-58" d="M439.44,147.76a1.75,1.75,0,1,1-1.75-1.75A1.75,1.75,0,0,1,439.44,147.76Z"/><circle class="cls-59" cx="78.18" cy="103" r="31"/><circle class="cls-18" cx="78.18" cy="103" r="23.83"/><circle class="cls-60" cx="78.18" cy="103" r="1.42"/><rect class="cls-60" x="77.49" y="80.67" width="1.38" height="2.13"/><rect class="cls-60" x="98.76" y="101.94" width="1.38" height="2.12" transform="translate(202.45 3.55) rotate(90)"/><rect class="cls-60" x="77.49" y="123.21" width="1.38" height="2.13" transform="translate(156.36 248.54) rotate(180)"/><rect class="cls-60" x="56.22" y="101.94" width="1.38" height="2.13" transform="translate(-46.09 159.91) rotate(-90)"/><rect class="cls-60" x="87.46" y="83.14" width="1.37" height="2.13" transform="translate(49.72 -31.48) rotate(27.93)"/><rect class="cls-60" x="96.29" y="111.9" width="1.37" height="2.13" transform="translate(242.2 80.21) rotate(117.93)"/><rect class="cls-60" x="67.53" y="120.73" width="1.37" height="2.13" transform="translate(71.43 261.35) rotate(-152.07)"/><rect class="cls-60" x="58.7" y="91.97" width="1.37" height="2.13" transform="translate(-50.63 101.92) rotate(-62.07)"/><rect class="cls-60" x="96.19" y="91.8" width="1.37" height="2.12" transform="translate(132.36 -36.56) rotate(61.54)"/><rect class="cls-60" x="87.63" y="120.64" width="1.37" height="2.12" transform="translate(223.95 186.61) rotate(151.54)"/><rect class="cls-60" x="58.79" y="112.07" width="1.37" height="2.12" transform="translate(-11.64 219.34) rotate(-118.46)"/><rect class="cls-60" x="67.36" y="83.24" width="1.37" height="2.12" transform="translate(-31.95 42.61) rotate(-28.46)"/><rect class="cls-60" x="77.84" y="86.98" width="0.69" height="16.02"/><rect class="cls-60" x="82.76" y="97.99" width="0.86" height="10.02" transform="translate(186.19 19.81) rotate(90)"/></g></g></svg>